<svg width="289" height="307" viewBox="0 0 289 307" fill="none" xmlns="http://www.w3.org/2000/svg">
<path d="M30.7797 307C13.7805 307 0 293.255 0 276.3V51.1667C0 22.9081 22.9676 0 51.2995 0H107.488C139.001 0 154.109 2.14685 167.491 7.29931C202.457 20.6098 224.473 51.9538 224.473 96.6084C224.473 129.241 208.933 164.878 178.283 180.336V181.194C178.283 181.194 182.6 186.776 189.939 199.657L249.942 307H184.313C172.903 307 162.43 300.705 157.099 290.643L110.942 203.522H75.5439V307H30.7797ZM75.5439 139.116H108.351C132.525 139.116 147.634 125.806 147.634 101.331C147.634 85.8741 143.749 74.2811 129.504 68.6993C122.597 65.6937 113.532 64.4056 101.013 64.4056H75.5439V139.116Z" fill="#5A30F0"/>
<path d="M249.942 307C378.263 307 126.477 307 249.942 307Z" fill="#5A30F0"/>
<path d="M288 272.5C288 272.5 294 248 267.5 234.5C241 221 222.5 242.5 222.5 242.5C222.5 242.5 230.5 261.5 248 269C265.5 276.5 288 272.5 288 272.5Z" fill="#5A30F0"/>
<path d="M249.5 307L220.306 254.45C218.058 250.929 217 248.5 217 248.5L220.306 254.45C226.087 263.505 239.738 279.78 263.5 280.5L273.5 281L286.5 280.5C286.5 280.5 283.5 292 273 299.5C262.5 307 249.5 307 249.5 307Z" fill="#5A30F0"/>
</svg>
