<svg x="0px" y="0px"
	 viewBox="0 0 255.67 255.67" style="enable-background:new 0 0 255.67 255.67;" xml:space="preserve">
<path d="M186.41,255.6c-0.88,0-1.19-1.22-0.37-1.6l56.66-28.29c0.34-0.17,0.71-0.27,1.09-0.27
	c0.65,0,1.22,0.24,1.67,0.71l5.35,5.42c0.01,0.01,0.01,0.02,0.01,0.03s0,0.02,0.01,0.03l0.77,0.8c3.87,3.8,5.09,9.51,3.06,14.57
	c-2.31,5.23-7.54,8.66-13.31,8.66L186.41,255.6z M148.67,255.62c0-0.01-0.01-0.02-0.02-0.02c-3.63-0.04-6.98-1.46-9.53-4.04
	c-2.51-2.58-3.91-5.98-3.87-9.58v-93.61c0.07-7.37,6.11-13.38,13.48-13.38h93.1c5.26,0,10.02,3.02,12.23,7.68l0.2,0.44
	c1.94,5.54,0.58,11.75-3.5,15.96l-92.59,92.73c-2.44,2.48-5.74,3.8-9.2,3.84h-0.29C148.68,255.64,148.67,255.63,148.67,255.62z
	 M12.64,255.62c0-0.01-0.01-0.02-0.02-0.02C5.66,255.59,0,249.96,0,243v-93.95c-0.07-5.23,2.89-10.12,7.51-12.46l0.41-0.17
	c0.71-0.27,1.53-0.44,2.34-0.44c2.51,0,4.82,1.46,5.88,3.74l12.84,25.78l35.87,71.67l0.2,0.48c0.14,0.27,0.27,0.54,0.37,0.88
	c0.02,0.14,0.06,0.27,0.1,0.4l0.07,0.18c0.44,1.43,0.65,2.89,0.58,4.35c-0.14,2.58-1.05,5.06-2.62,7.17
	c-2.34,3.16-6.05,5.03-9.95,5.03H12.65C12.64,255.64,12.64,255.63,12.64,255.62z M94.19,255.6c-2.79-0.03-5.37-1.66-6.56-4.18
	l-45.96-91.91c-0.34-0.68,0.54-1.32,1.09-0.78l72.76,72.86l0.78,0.81c2.58,2.58,4.01,5.98,4.01,9.61c0,3.63-1.43,7.03-3.97,9.61
	c-2.58,2.58-5.98,3.97-9.61,3.97H94.19z M246.63,183.12c0.17-0.17,0.41-0.2,0.51-0.2s0.24,0.03,0.34,0.07
	c3.94,1.83,6.76,5.2,7.85,9.31c1.36,5.77-1.36,11.89-6.59,14.81l-48.3,24.22c-0.68,0.34-1.32-0.54-0.78-1.09L246.63,183.12z
	 M13.59,120.55c0,0.02-0.02,0.03-0.03,0.03C6.1,120.56,0,114.46,0,106.96c0-1.97,0.44-3.87,1.32-5.6L48.1,7.51
	C50.41,2.89,55.03,0,60.19,0c2.07,0,4.08,0.48,5.94,1.39c2.65,1.29,4.82,3.46,6.11,6.11l46.77,93.89c0.85,1.7,1.33,3.63,1.33,5.54
	c0.03,7.47-6.05,13.59-13.52,13.59h-93.2C13.6,120.52,13.59,120.53,13.59,120.55z M149.63,120.14c-5.74,0-10.97-3.4-13.32-8.63
	c-2.07-4.99-0.92-10.77,2.99-14.61l94.56-94.73c1.36-1.36,3.26-2.14,5.2-2.14h2.76c7.65,0,13.85,6.17,13.85,13.81
	c0,26.72,0,83.65,0,92.64c0,7.54-6.11,13.65-13.65,13.65H149.63z M136.75,19.5c-2.14-4.14-1.9-9.17,0.54-13.11
	c2.44-3.94,6.73-6.35,11.38-6.35h65.55c0.61,0,0.92,0.75,0.48,1.15l-57.03,57.17c-0.48,0.51-1.32,0.37-1.63-0.27L136.75,19.5z
	 M23.85,4.79c-2.89-2.82-6.73-4.38-10.77-4.38c-1.94,0-3.84,0.37-5.43,0.99C2.92,3.74,0,8.42,0,13.69V69.8
	c0,0.71,0.95,0.95,1.29,0.31l28.8-57.81c0.27-0.51,0.17-1.15-0.27-1.56L23.85,4.79z M90.42,10.7c-0.41,0.41-0.51,1.05-0.27,1.56
	l28.8,57.81c0.31,0.65,1.29,0.41,1.29-0.31V13.69c0-5.26-2.92-9.95-7.61-12.3c-1.6-0.61-3.5-0.99-5.44-0.99
	c-4.04,0-7.88,1.56-10.8,4.38L90.42,10.7z" fill="#161618"/>
</svg>
