<svg width="41" height="40" viewBox="0 0 41 40" fill="none" xmlns="http://www.w3.org/2000/svg">
<path d="M20.5 23.3335H22.1667C24 23.3335 25.5 21.8335 25.5 20.0002V3.3335H10.5C8 3.3335 5.81668 4.71681 4.68335 6.75015" stroke="#FD6923" stroke-width="2.5" stroke-linecap="round" stroke-linejoin="round"/>
<path d="M3.83337 28.3335C3.83337 31.1002 6.06671 33.3335 8.83337 33.3335H10.5C10.5 31.5002 12 30.0002 13.8334 30.0002C15.6667 30.0002 17.1667 31.5002 17.1667 33.3335H23.8334C23.8334 31.5002 25.3334 30.0002 27.1667 30.0002C29 30.0002 30.5 31.5002 30.5 33.3335H32.1667C34.9334 33.3335 37.1667 31.1002 37.1667 28.3335V23.3335H32.1667C31.25 23.3335 30.5 22.5835 30.5 21.6668V16.6668C30.5 15.7502 31.25 15.0002 32.1667 15.0002H34.3167L31.4667 10.0168C30.8667 8.98351 29.7667 8.3335 28.5667 8.3335H25.5V20.0002C25.5 21.8335 24 23.3335 22.1667 23.3335H20.5" stroke="#FD6923" stroke-width="2.5" stroke-linecap="round" stroke-linejoin="round"/>
<path d="M13.8333 36.6667C15.6743 36.6667 17.1667 35.1743 17.1667 33.3333C17.1667 31.4923 15.6743 30 13.8333 30C11.9924 30 10.5 31.4923 10.5 33.3333C10.5 35.1743 11.9924 36.6667 13.8333 36.6667Z" stroke="#FD6923" stroke-width="2.5" stroke-linecap="round" stroke-linejoin="round"/>
<path d="M27.1667 36.6667C29.0077 36.6667 30.5 35.1743 30.5 33.3333C30.5 31.4923 29.0077 30 27.1667 30C25.3257 30 23.8334 31.4923 23.8334 33.3333C23.8334 35.1743 25.3257 36.6667 27.1667 36.6667Z" stroke="#FD6923" stroke-width="2.5" stroke-linecap="round" stroke-linejoin="round"/>
<path d="M37.1667 20V23.3333H32.1667C31.25 23.3333 30.5 22.5833 30.5 21.6667V16.6667C30.5 15.75 31.25 15 32.1667 15H34.3167L37.1667 20Z" stroke="#FD6923" stroke-width="2.5" stroke-linecap="round" stroke-linejoin="round"/>
<path d="M3.83337 13.3335H13.8334" stroke="#FD6923" stroke-width="2.5" stroke-linecap="round" stroke-linejoin="round"/>
<path d="M3.83337 18.3335H10.5" stroke="#FD6923" stroke-width="2.5" stroke-linecap="round" stroke-linejoin="round"/>
<path d="M3.83337 23.3335H7.16671" stroke="#FD6923" stroke-width="2.5" stroke-linecap="round" stroke-linejoin="round"/>
</svg>
