<svg width="24" height="24" viewBox="0 0 24 24" fill="none" xmlns="http://www.w3.org/2000/svg">
<path d="M14.0025 2.75995C14.0101 2.75524 14.0189 2.75289 14.0278 2.7532C14.0367 2.75351 14.0454 2.75647 14.0526 2.76169C14.0598 2.76692 14.0654 2.77418 14.0685 2.78255C14.0716 2.79092 14.0721 2.80002 14.07 2.8087C13.8938 3.5062 13.0275 7.54495 16.1588 10.1662C19.2188 12.7312 19.3125 16.59 17.0325 19.1662C14.3063 22.2525 9.59251 21.7087 7.56376 19.68C6.13501 18.2587 3.54001 13.6237 7.98376 9.74995C7.98726 9.74529 7.99179 9.74151 7.99699 9.73891C8.0022 9.73631 8.00794 9.73495 8.01376 9.73495C8.01958 9.73495 8.02533 9.73631 8.03053 9.73891C8.03574 9.74151 8.04027 9.74529 8.04376 9.74995C8.15251 10.2112 8.90626 13.125 10.9163 13.5C11.01 13.5 11.055 13.4587 11.01 13.3725C10.4175 12.225 7.74751 6.37495 14.0025 2.75995Z" stroke="black" stroke-width="1.5" stroke-linecap="round"/>
</svg>
