<svg viewBox="0 0 448 449" xmlns="http://www.w3.org/2000/svg">
<path d="M224.1 117C160.5 117 109.2 168.3 109.2 231.9C109.2 295.5 160.5 346.8 224.1 346.8C287.7 346.8 339 295.5 339 231.9C339 168.3 287.7 117 224.1 117ZM224.1 306.6C183 306.6 149.4 273.1 149.4 231.9C149.4 190.7 182.9 157.2 224.1 157.2C265.3 157.2 298.8 190.7 298.8 231.9C298.8 273.1 265.2 306.6 224.1 306.6ZM370.5 112.3C370.5 127.2 358.5 139.1 343.7 139.1C328.8 139.1 316.9 127.1 316.9 112.3C316.9 97.5 328.9 85.5 343.7 85.5C358.5 85.5 370.5 97.5 370.5 112.3Z"/>
<path d="M446.675 131.675C444.975 95.775 436.775 63.975 410.475 37.775C384.275 11.575 352.475 3.375 316.575 1.575C279.575 -0.525 168.675 -0.525 131.675 1.575C95.875 3.275 64.075 11.475 37.775 37.675C11.475 63.875 3.375 95.675 1.575 131.575C-0.525 168.575 -0.525 279.475 1.575 316.475C3.275 352.375 11.475 384.175 37.775 410.375C64.075 436.575 95.775 444.775 131.675 446.575C168.675 448.675 279.575 448.675 316.575 446.575C352.475 444.875 384.275 436.675 410.475 410.375C436.675 384.175 444.875 352.375 446.675 316.475C448.775 279.475 448.775 168.675 446.675 131.675ZM398.875 356.175C391.075 375.775 375.975 390.875 356.275 398.775C326.775 410.475 256.775 407.775 224.175 407.775C191.575 407.775 121.475 410.375 92.075 398.775C72.475 390.975 57.375 375.875 49.475 356.175C37.775 326.675 40.475 256.675 40.475 224.075C40.475 191.475 37.875 121.375 49.475 91.975C57.275 72.375 72.375 57.275 92.075 49.375C121.575 37.675 191.575 40.375 224.175 40.375C256.775 40.375 326.875 37.775 356.275 49.375C375.875 57.175 390.975 72.275 398.875 91.975C410.575 121.475 407.875 191.475 407.875 224.075C407.875 256.675 410.575 326.775 398.875 356.175Z"/>
</svg>
