<?xml version="1.0" ?><svg style="enable-background:new 0 0 64 64;" version="1.1" viewBox="0 0 64 64" xml:space="preserve" xmlns="http://www.w3.org/2000/svg" xmlns:xlink="http://www.w3.org/1999/xlink"><style type="text/css">
	.st0{fill:#0072FF;}
</style><g id="GUIDES_64"/><g id="Layer_3"/><g id="Layer_2"><path class="st0" d="M32,4C16.5,4,4,15.6,4,29.9c0,7.5,3.4,14.2,8.9,19c1,0.8,1.5,2,1.5,3.3v6.1c0,0.8,0.8,1.3,1.5,0.9l6.5-3.6   c0.9-0.5,2-0.7,3-0.4c2.1,0.5,4.3,0.7,6.5,0.7c15.5,0,28-11.6,28-25.9S47.5,4,32,4z M46.1,27.2L35.8,38.8c-0.6,0.6-1.5,0.7-2.2,0.2   l-3.5-2.8c-1.5-1.2-3.5-1.5-5.3-0.9l-5.6,1.9c-1.5,0.5-2.8-1.3-1.7-2.6L28,21.9c0.6-0.7,1.6-0.8,2.3-0.2l3.6,3.3   c1.5,1.4,3.7,1.8,5.6,1.2l4.9-1.6C45.9,24.1,47.2,25.9,46.1,27.2z"/></g></svg>