<?xml version="1.0" standalone="no"?>
<!DOCTYPE svg PUBLIC "-//W3C//DTD SVG 20010904//EN"
 "http://www.w3.org/TR/2001/REC-SVG-20010904/DTD/svg10.dtd">
<svg version="1.0" xmlns="http://www.w3.org/2000/svg"
 width="512.000000pt" height="512.000000pt" viewBox="0 0 512.000000 512.000000"
 preserveAspectRatio="xMidYMid meet">

<g transform="translate(0.000000,512.000000) scale(0.100000,-0.100000)"
fill="#FFF" stroke="none">
<path d="M2922 5109 c-288 -51 -541 -254 -648 -517 -59 -148 -58 -131 -62
-729 l-3 -553 -199 0 -200 0 0 155 c0 166 -10 214 -48 234 -13 7 -108 11 -260
11 l-239 0 -25 -25 c-32 -32 -38 -68 -38 -237 l0 -137 -322 -3 c-316 -3 -324
-4 -370 -26 -150 -75 -231 -236 -199 -394 25 -119 133 -234 248 -263 l47 -12
13 -89 c20 -137 58 -258 123 -389 158 -318 435 -559 765 -664 128 -41 192 -52
345 -60 80 -3 135 -10 134 -16 -1 -5 -50 -276 -109 -602 l-109 -591 -104 -4
c-99 -3 -105 -4 -128 -31 -33 -38 -33 -96 0 -134 l24 -28 1002 0 1002 0 24 28
c33 38 33 96 0 134 -23 27 -28 28 -130 31 l-105 4 -6 31 c-122 663 -211 1164
-208 1170 2 4 51 7 107 7 244 0 482 76 710 228 99 66 271 239 339 343 111 168
183 354 210 544 13 88 13 89 44 96 96 19 191 97 238 195 25 50 29 71 30 144 0
77 -3 92 -33 152 -36 74 -95 132 -170 170 -46 22 -54 23 -369 26 l-323 3 0
137 c0 169 -6 205 -38 237 l-25 25 -239 0 c-152 0 -247 -4 -260 -11 -38 -20
-48 -68 -48 -234 l0 -155 -200 0 -200 0 0 490 c0 537 0 533 59 583 66 55 168
41 216 -31 23 -33 25 -47 25 -138 0 -55 5 -115 11 -132 21 -61 29 -62 347 -62
l288 0 30 31 29 30 -2 147 c-1 158 -15 238 -60 356 -52 138 -180 298 -309 387
-64 43 -197 104 -274 123 -78 20 -274 29 -348 15z m349 -226 c141 -48 260
-141 340 -266 63 -96 91 -187 104 -329 l6 -68 -154 0 -154 0 -5 73 c-15 217
-219 366 -428 313 -83 -21 -159 -73 -204 -139 -65 -97 -66 -105 -66 -659 l0
-498 -150 0 -150 0 0 513 c0 578 2 596 71 737 81 165 258 304 439 345 102 23
246 14 351 -22z m-1663 -1470 l-3 -98 -100 0 -100 0 -3 98 -3 97 106 0 106 0
-3 -97z m2110 0 l-3 -98 -100 0 -100 0 -3 98 -3 97 106 0 106 0 -3 -97z m839
-331 c40 -28 68 -98 59 -146 -8 -44 -50 -94 -93 -112 -48 -21 -3878 -21 -3926
0 -43 18 -85 68 -93 112 -10 52 19 119 64 149 l37 25 1960 -2 1960 -3 32 -23z
m-252 -529 c-12 -98 -53 -223 -109 -338 -140 -282 -388 -485 -702 -572 l-99
-28 -835 0 -835 0 -99 28 c-318 89 -563 291 -706 582 -59 120 -92 223 -105
328 l-7 57 1752 0 1752 0 -7 -57z m-1360 -1240 c10 -54 59 -325 110 -603 l91
-505 -584 -3 c-322 -1 -587 -1 -588 1 -3 3 102 582 212 1175 l6 32 368 0 368
0 17 -97z"/>
</g>
</svg>
