<?xml version="1.0" standalone="no"?>
<!DOCTYPE svg PUBLIC "-//W3C//DTD SVG 20010904//EN"
 "http://www.w3.org/TR/2001/REC-SVG-20010904/DTD/svg10.dtd">
<svg version="1.0" xmlns="http://www.w3.org/2000/svg"
 width="90" height="55" viewBox="0 0 512.000000 512.000000"
 preserveAspectRatio="xMidYMid meet">

<g transform="translate(0.000000,512.000000) scale(0.100000,-0.100000)"
fill="#000000" stroke="none">
<path d="M3478 4149 c-70 -8 -158 -49 -194 -92 -53 -63 -78 -134 -78 -222 -1
-136 7 -146 440 -574 206 -202 374 -373 374 -380 0 -8 -483 -11 -1878 -11
-2074 0 -1935 4 -2024 -63 -54 -41 -104 -135 -113 -212 -16 -126 52 -251 169
-313 l51 -27 1898 -3 c1501 -2 1897 -5 1897 -15 0 -6 -166 -176 -369 -377
-203 -201 -380 -384 -394 -406 -40 -65 -60 -148 -53 -213 25 -215 243 -335
446 -246 61 27 105 68 708 669 354 353 661 664 683 693 53 68 83 160 75 232
-14 118 -4 107 -730 834 -487 488 -686 680 -718 695 -59 29 -121 39 -190 31z"/>
</g>
</svg>
