<svg viewBox="0 0 449 449" xmlns="http://www.w3.org/2000/svg">
	<path d="M446.675 131.675C444.975 95.775 436.775 63.975 410.475 37.775C384.275 11.575 352.475 3.375 316.575 1.575C279.575 -0.525 168.675 -0.525 131.675 1.575C95.875 3.275 64.075 11.475 37.775 37.675C11.475 63.875 3.375 95.675 1.575 131.575C-0.525 168.575 -0.525 279.475 1.575 316.475C3.275 352.375 11.475 384.175 37.775 410.375C64.075 436.575 95.775 444.775 131.675 446.575C168.675 448.675 279.575 448.675 316.575 446.575C352.475 444.875 384.275 436.675 410.475 410.375C436.675 384.175 444.875 352.375 446.675 316.475C448.775 279.475 448.775 168.675 446.675 131.675ZM398.875 356.175C391.075 375.775 375.975 390.875 356.275 398.775C326.775 410.475 256.775 407.775 224.175 407.775C191.575 407.775 121.475 410.375 92.075 398.775C72.475 390.975 57.375 375.875 49.475 356.175C37.775 326.675 40.475 256.675 40.475 224.075C40.475 191.475 37.875 121.375 49.475 91.975C57.275 72.375 72.375 57.275 92.075 49.375C121.575 37.675 191.575 40.375 224.175 40.375C256.775 40.375 326.875 37.775 356.275 49.375C375.875 57.175 390.975 72.275 398.875 91.975C410.575 121.475 407.875 191.475 407.875 224.075C407.875 256.675 410.575 326.775 398.875 356.175Z"/>
	<path d="M145.875 242.149L84.4464 222.079C84.4464 222.079 77.1051 219.092 79.469 212.319C79.9556 210.922 80.9373 209.734 83.8738 207.691C97.4846 198.178 335.799 112.28 335.799 112.28C335.799 112.28 342.528 110.007 346.497 111.519C347.478 111.824 348.362 112.385 349.057 113.144C349.751 113.904 350.232 114.834 350.451 115.842C350.879 117.62 351.059 119.45 350.983 121.279C350.964 122.861 350.773 124.327 350.629 126.626C349.177 150.11 305.742 325.384 305.742 325.384C305.742 325.384 303.143 335.64 293.832 335.991C291.544 336.065 289.264 335.677 287.129 334.848C284.994 334.02 283.047 332.769 281.404 331.17C263.133 315.409 199.98 272.849 186.025 263.489C185.711 263.273 185.446 262.993 185.248 262.667C185.05 262.34 184.925 261.975 184.88 261.595C184.685 260.609 185.755 259.387 185.755 259.387C185.755 259.387 295.72 161.368 298.646 151.078C298.872 150.281 298.017 149.887 296.867 150.237C289.563 152.931 162.953 233.111 148.979 241.96C147.973 242.265 146.91 242.33 145.875 242.149Z"/>
</svg>
