<?xml version="1.0" standalone="no"?>
<!DOCTYPE svg PUBLIC "-//W3C//DTD SVG 20010904//EN"
 "http://www.w3.org/TR/2001/REC-SVG-20010904/DTD/svg10.dtd">
<svg version="1.0" xmlns="http://www.w3.org/2000/svg"
 width="700.000000pt" height="700.000000pt" viewBox="0 0 700.000000 700.000000"
 preserveAspectRatio="xMidYMid meet">
<metadata>
Created by potrace 1.14, written by Peter Selinger 2001-2017
</metadata>
<g transform="translate(0.000000,700.000000) scale(0.100000,-0.100000)"
fill="#000000" stroke="none">
<path d="M930 6994 c-214 -33 -365 -94 -517 -210 -186 -142 -317 -338 -381
-573 l-27 -96 0 -2615 0 -2615 27 -96 c110 -399 416 -687 818 -771 53 -11 526
-13 2665 -13 l2600 0 99 27 c373 103 647 378 753 754 l28 99 0 2615 0 2615
-27 99 c-103 373 -382 651 -757 754 l-96 27 -2580 1 c-1419 1 -2591 0 -2605
-2z m2815 -1003 c336 -39 548 -109 774 -259 110 -73 263 -220 340 -329 429
-601 368 -1557 -134 -2082 -79 -83 -205 -185 -274 -221 -68 -36 -68 -31 -14
-111 27 -41 72 -112 100 -159 72 -121 416 -736 453 -812 144 -288 371 -478
669 -561 67 -19 103 -21 308 -22 264 0 245 8 198 -85 -80 -158 -228 -278 -406
-327 -58 -16 -122 -18 -709 -18 l-645 0 -67 23 c-85 29 -173 86 -222 143 -47
55 -37 37 -466 847 l-355 671 -287 1 -288 0 -2 -842 -3 -843 -405 0 c-365 0
-411 2 -465 18 -182 56 -321 210 -354 391 -8 41 -11 641 -11 1937 0 2042 -2
1963 55 2116 100 267 349 475 631 527 66 13 192 15 779 12 437 -2 738 -8 800
-15z m1997 -3752 c95 -19 212 -83 291 -159 80 -76 127 -147 165 -248 21 -57
25 -85 26 -187 l1 -120 -95 -8 c-148 -13 -362 -2 -455 22 -221 57 -461 237
-555 415 l-24 44 28 33 c73 87 195 166 311 200 70 20 227 25 307 8z"/>
<path d="M2720 4349 l0 -611 338 4 c308 4 344 6 416 26 273 75 416 284 416
604 -1 367 -169 538 -569 578 -57 5 -215 10 -352 10 l-249 0 0 -611z"/>
</g>
</svg>
